<svg id="Layer_1" data-name="Layer 1" xmlns="http://www.w3.org/2000/svg" viewBox="0 0 496.33 400.64"><defs><style>.cls-1{fill:#eacc4e;}.cls-1,.cls-2,.cls-3{fill-rule:evenodd;}.cls-2,.cls-4{fill:#63707c;}.cls-3{fill:#40c165;}</style></defs><title>logo2</title><path class="cls-1" d="M630.92,333q-10,9.29-20,18.65c-10.6,9.89-21.12,19.86-31.82,29.65-6,5.53-12.54,10.59-18.53,16.18-13.12,12.22-25.93,24.75-39.07,36.94-8.68,8.05-17.69,15.74-26.55,23.58-0.34.3-.74,0.52-1.08,0.81-1.68,1.4-2.24.94-2.75-1.15-3.82-15.57-7.81-31.11-11.69-46.67-2.31-9.24-4.49-18.51-6.8-27.75-1.24-4.91-2.74-9.75-4-14.66-1.94-7.87-3.68-15.8-5.63-23.68-2.8-11.28-5.75-22.53-8.57-33.82-2.75-11.07-5.36-22.17-8.14-33.22-2.36-9.38-4.92-18.7-7.28-28.08-2-8-3.86-16.07-5.8-24.1a86.3,86.3,0,0,1-2-8.46,5.22,5.22,0,0,1,1.31-3.9c8.79-8.39,17.72-16.63,26.59-25,1.55-1.46,2.17-1.25,2.71.85,3.87,15.62,7.86,31.21,11.76,46.83,2.46,9.82,4.83,19.68,7.28,29.51,2.41,9.68,4.86,19.34,7.29,29q5.84,23.19,11.66,46.39,5.28,21,10.56,42.07c0.76,3,1.42,6.07,2.18,9.09,0.49,1.94,1.44,1.44,2.51.43q7.86-7.36,15.73-14.68l22.95-21.42c12.57-11.73,25.15-23.42,37.66-35.21a5,5,0,0,1,5.64-1.27c9.09,2.86,18.24,5.53,27.36,8.29,2,0.6,3.91,1.46,5.91,2C632.49,330.79,632.42,331.57,630.92,333Z" transform="translate(-311.52 -187.39)"/><path class="cls-2" d="M718.13,312.25c-0.36.38-.75,0.72-1.14,1.09l-90.3,84.28,0,0-70.95,66.23c-6.61,6.17-13.23,12.32-19.79,18.54a3.79,3.79,0,0,1-4.19,1c-11.36-3.32-22.76-6.5-34.13-9.77-2.46-.7-1.67-2-0.35-3.18l16.87-15.76c2.95-2.75,5.89-5.52,8.85-8.25q50.17-46.2,100.33-92.39c8.74-8.06,17.34-16.24,26.06-24.31,1.48-1.37,1.62-2.06-.5-2.67-4.93-1.43-9.85-2.94-14.76-4.47-7.82-2.41-15.63-4.88-23.44-7.3q-14.84-4.59-29.69-9.15-17.84-5.42-35.7-10.78a5.72,5.72,0,0,1-4.3-4.85c-2-9.71-4.22-19.37-6.33-29.06-0.4-1.82-.77-3.64-1.06-5.48-0.26-1.61.46-2.29,2.06-1.81q11.56,3.47,23.11,7c8.19,2.48,16.39,5,24.57,7.48,5.78,1.78,11.51,3.66,17.29,5.44,10,3.1,20.11,6.11,30.14,9.22,6.27,1.94,12.48,4.06,18.75,6,7.46,2.29,15,4.4,22.45,6.68,15.17,4.63,30.31,9.37,45.5,14C719.44,310.49,719.21,311.12,718.13,312.25Z" transform="translate(-311.52 -187.39)"/><path class="cls-3" d="M717.64,266.85c0.48,1.66,1,3.12,1.34,4.61q3.62,14.53,7.21,29.06c0.45,1.83.29,2.7-2,2-11.74-3.59-23.51-7.07-35.28-10.56-11-3.27-22.1-6.49-33.14-9.75Q645.37,279.14,635,276c-10.95-3.33-21.88-6.71-32.83-10-13.61-4.15-27.21-8.32-40.84-12.39-9.7-2.89-19.44-5.63-29.15-8.45-2.57-.75-5.15-1.47-7.68-2.34-1.77-.61-2.44-0.17-2,1.68,1.29,5.74,2.58,11.48,3.92,17.21q4.12,17.65,8.3,35.28c2.34,9.86,4.73,19.71,7.05,29.57q2.7,11.5,5.24,23a2.71,2.71,0,0,1-.56,2.17q-10.11,9.83-20.37,19.51c-2.33,2.2-4.88,4.16-7.32,6.24-1,.89-1.54.86-1.88-0.66-1.6-7.19-3.29-14.37-5-21.54-1.89-8-3.85-16.07-5.71-24.11-2.77-12-5.46-23.94-8.25-35.9-1.91-8.19-4-16.35-5.89-24.54-2.56-10.86-5-21.74-7.6-32.61-2-8.32-4-16.63-6-25-1.66-7-3.25-14-4.91-21-0.42-1.78.46-2,1.81-1.61q6.85,2.07,13.68,4.24,14.38,4.53,28.75,9.1,12.37,3.9,24.75,7.74c7.47,2.32,15,4.55,22.41,6.91,8.58,2.72,17.11,5.62,25.71,8.31,7.31,2.29,14.68,4.35,22,6.59,6.48,2,12.93,4.06,19.39,6.08,11,3.46,22,6.88,33,10.35,8.52,2.7,17,5.48,25.54,8.18,7.24,2.3,14.51,4.51,21.75,6.81C714.16,265.4,715.86,266.16,717.64,266.85Z" transform="translate(-311.52 -187.39)"/><path class="cls-4" d="M342.88,524.54A30.21,30.21,0,0,1,355.07,527a33.33,33.33,0,0,1,10.07,6.71l-8.87,8.87A18.28,18.28,0,0,0,343,537a18,18,0,0,0-13.31,5.55,18.82,18.82,0,1,0,26.65,26.58l8.87,8.87a32.74,32.74,0,0,1-10.07,6.75,31.42,31.42,0,1,1-12.19-60.41Z" transform="translate(-311.52 -187.39)"/><path class="cls-4" d="M421.83,533.64a31.25,31.25,0,1,1-22.22-9.26A30.3,30.3,0,0,1,421.83,533.64Zm-35.53,8.83a18.82,18.82,0,1,0,26.62,26.62A18.82,18.82,0,1,0,386.31,542.48Z" transform="translate(-311.52 -187.39)"/><path class="cls-4" d="M472.94,559.06V524.69H485.4V588l-37.3-35.57v34.41H435.64V523.54Z" transform="translate(-311.52 -187.39)"/><path class="cls-4" d="M528.79,524.85l0.23,25V562.5a23.88,23.88,0,0,1-7.33,17.63,24.18,24.18,0,0,1-17.36,7.29h-0.42A23.85,23.85,0,0,1,490,583.06l6.29-10.92a11.56,11.56,0,0,0,6.13,2.66,10.64,10.64,0,0,0,1.54.12h0.27a10.55,10.55,0,0,0,1.5-.12,12.08,12.08,0,0,0,7.14-3.59,11.89,11.89,0,0,0,3.7-8.79V550l-0.23-25.19Z" transform="translate(-311.52 -187.39)"/><path class="cls-4" d="M585.22,524.69v37.49a25,25,0,1,1-50,0V524.69h12.54v37.46a12.51,12.51,0,0,0,12.46,12.46,12.13,12.13,0,0,0,8.79-3.67,11.89,11.89,0,0,0,3.7-8.79V524.69h12.54Z" transform="translate(-311.52 -187.39)"/><path class="cls-4" d="M591.31,524.62h20.21A22.7,22.7,0,0,1,627.68,531c4.28,4.28,6,8.29,6,14.27v1.93a18.86,18.86,0,0,1-3.93,11.73c-2.62,3.7-4.82,4.78-8.91,6.33l14,21.64H619.7l-15.89-24.3v24.3H591.35Zm21.37,30a6.91,6.91,0,0,0,5.71-2.47,8.51,8.51,0,0,0,2.47-6.48,7.79,7.79,0,0,0-2.47-6.09c-1.81-1.85-5.05-2.51-7.64-2.51h-7v17.51Z" transform="translate(-311.52 -187.39)"/><path class="cls-4" d="M656.65,577.27c-1.39,3.16-2.82,6.29-4.24,9.45H639l28.2-63.18,28.28,63.18H682.07c-1.39-3.12-2.78-6.29-4.17-9.41H656.73Zm16.16-11-5.48-12.92-5.52,12.92h11Z" transform="translate(-311.52 -187.39)"/><path class="cls-4" d="M732.75,524.69l-1.58,20.17h-9.33l-1.54-20.17h12.46Z" transform="translate(-311.52 -187.39)"/><path class="cls-4" d="M759.29,524.69v62.18H746.83V541.16L740.62,543V530Z" transform="translate(-311.52 -187.39)"/><path class="cls-4" d="M807.85,524.69l-19.63,62.18h-13l15.54-50h-14v6.44H764.3V524.69h43.55Z" transform="translate(-311.52 -187.39)"/></svg>