<?xml version="1.0" encoding="utf-8"?>
<!-- Generator: Adobe Illustrator 16.0.0, SVG Export Plug-In . SVG Version: 6.00 Build 0)  -->
<!DOCTYPE svg PUBLIC "-//W3C//DTD SVG 1.1//EN" "http://www.w3.org/Graphics/SVG/1.1/DTD/svg11.dtd">
<svg version="1.1" id="Layer_1" xmlns="http://www.w3.org/2000/svg" xmlns:xlink="http://www.w3.org/1999/xlink" x="0px" y="0px"
	 width="720px" height="1280px" viewBox="0 0 720 1280" enable-background="new 0 0 720 1280" xml:space="preserve">
<title>logo2</title>
<path fill="#FFFFFF" d="M463.337,560.664c-9.671,8.984-19.342,18.003-29.013,27.055c-15.377,14.347-30.638,28.811-46.16,43.012
	c-8.704,8.022-18.19,15.362-26.88,23.472c-19.033,17.727-37.615,35.903-56.677,53.587c-12.592,11.678-25.662,22.833-38.515,34.206
	c-0.493,0.436-1.073,0.755-1.567,1.175c-2.437,2.031-3.249,1.364-3.989-1.668c-5.542-22.587-11.33-45.13-16.958-67.701
	c-3.351-13.404-6.513-26.852-9.864-40.256c-1.799-7.123-3.975-14.144-5.803-21.267c-2.814-11.417-5.338-22.92-8.167-34.352
	c-4.062-16.363-8.341-32.683-12.432-49.061c-3.989-16.059-7.775-32.161-11.808-48.19c-3.424-13.607-7.137-27.127-10.561-40.734
	c-2.901-11.605-5.599-23.312-8.414-34.961c-1.173-4.039-2.141-8.135-2.901-12.272c-0.167-2.067,0.519-4.112,1.9-5.658
	c12.751-12.171,25.706-24.124,38.573-36.266c2.249-2.118,3.148-1.813,3.931,1.233c5.614,22.659,11.402,45.274,17.06,67.934
	c3.569,14.246,7.007,28.549,10.561,42.809c3.496,14.043,7.05,28.056,10.575,42.069c5.648,22.427,11.286,44.858,16.915,67.295
	c5.106,20.31,10.212,40.652,15.319,61.029c1.103,4.352,2.06,8.806,3.162,13.187c0.711,2.814,2.089,2.089,3.641,0.623
	c7.602-7.117,15.208-14.216,22.819-21.295l33.292-31.073c18.234-17.016,36.483-33.974,54.631-51.077
	c2.061-2.288,5.34-3.027,8.182-1.842c13.187,4.148,26.46,8.021,39.69,12.025c2.901,0.87,5.672,2.118,8.573,2.901
	C465.614,557.458,465.513,558.59,463.337,560.664z"/>
<path fill="#FFFFFF" d="M589.848,530.563c-0.521,0.551-1.088,1.044-1.653,1.581L457.201,654.405l0,0l-102.924,96.076
	c-9.589,8.95-19.192,17.872-28.708,26.896c-1.528,1.699-3.948,2.277-6.079,1.45c-16.479-4.816-33.016-9.429-49.51-14.173
	c-3.568-1.016-2.422-2.901-0.508-4.613l24.473-22.861c4.279-3.99,8.544-8.008,12.838-11.969
	c48.52-44.68,97.033-89.354,145.543-134.025c12.679-11.691,25.154-23.558,37.805-35.265c2.146-1.987,2.35-2.988-0.726-3.873
	c-7.151-2.075-14.289-4.266-21.412-6.484c-11.344-3.496-22.673-7.079-34.003-10.59c-14.352-4.439-28.708-8.863-43.069-13.273
	c-17.253-5.242-34.517-10.454-51.788-15.638c-3.336-0.828-5.816-3.625-6.238-7.036c-2.901-14.086-6.121-28.099-9.183-42.155
	c-0.58-2.641-1.117-5.281-1.537-7.95c-0.378-2.335,0.667-3.322,2.988-2.626c11.18,3.356,22.354,6.741,33.524,10.155
	c11.881,3.598,23.775,7.253,35.642,10.851c8.386,2.582,16.697,5.31,25.082,7.892c14.507,4.497,29.173,8.863,43.723,13.375
	c9.096,2.814,18.104,5.89,27.2,8.704c10.821,3.321,21.759,6.383,32.566,9.689c22.007,6.717,43.969,13.593,66.005,20.31
	C591.748,528.01,591.415,528.924,589.848,530.563z"/>
<path fill="#FFFFFF" d="M589.137,464.704c0.697,2.408,1.451,4.526,1.944,6.688c3.501,14.052,6.987,28.104,10.459,42.155
	c0.653,2.655,0.421,3.917-2.901,2.901c-17.03-5.207-34.104-10.256-51.179-15.318c-15.957-4.744-32.06-9.415-48.074-14.144
	c-10.058-2.97-20.102-5.973-30.13-9.009c-15.885-4.831-31.74-9.734-47.625-14.507c-19.743-6.02-39.473-12.069-59.244-17.974
	c-14.071-4.192-28.201-8.167-42.287-12.258c-3.728-1.088-7.471-2.132-11.141-3.395c-2.567-0.885-3.54-0.246-2.901,2.438
	c1.871,8.326,3.743,16.653,5.687,24.966c3.984,17.069,7.998,34.129,12.04,51.179c3.395,14.303,6.862,28.592,10.228,42.896
	c2.611,11.121,5.145,22.243,7.602,33.365c0.195,1.117-0.101,2.265-0.813,3.147c-9.777,9.507-19.628,18.94-29.55,28.302
	c-3.38,3.191-7.079,6.035-10.619,9.053c-1.451,1.291-2.234,1.247-2.728-0.958c-2.321-10.43-4.772-20.846-7.253-31.247
	c-2.742-11.604-5.585-23.312-8.283-34.975c-4.019-17.408-7.921-34.729-11.968-52.078c-2.771-11.881-5.802-23.719-8.544-35.6
	c-3.714-15.754-7.253-31.537-11.025-47.305c-2.901-12.07-5.803-24.125-8.704-36.267c-2.408-10.155-4.714-20.309-7.123-30.464
	c-0.609-2.582,0.667-2.901,2.625-2.335c6.625,2.002,13.24,4.052,19.845,6.151c13.907,4.381,27.809,8.781,41.707,13.201
	c11.963,3.772,23.931,7.515,35.903,11.228c10.836,3.366,21.76,6.601,32.509,10.024c12.447,3.945,24.82,8.152,37.297,12.055
	c10.604,3.322,21.295,6.311,31.914,9.56c9.399,2.901,18.757,5.89,28.128,8.82c15.957,5.02,31.914,9.98,47.871,15.014
	c12.359,3.917,24.661,7.95,37.05,11.866c10.503,3.337,21.049,6.543,31.552,9.879C584.089,462.601,586.555,463.703,589.137,464.704z"
	/>
<path fill="#FFFFFF" d="M45.492,838.521c6.078-0.05,12.101,1.166,17.684,3.568c5.422,2.326,10.374,5.625,14.608,9.734
	l-12.867,12.867c-5.04-5.218-11.996-8.144-19.25-8.095c-7.277-0.125-14.275,2.794-19.308,8.051
	c-10.711,10.612-10.791,27.898-0.179,38.609s27.898,10.791,38.609,0.179c0.077-0.076,0.153-0.152,0.229-0.229l12.867,12.867
	c-4.217,4.145-9.171,7.466-14.608,9.792c-23.226,9.707-49.923-1.253-59.63-24.479C-6.06,878.16,4.9,851.463,28.125,841.756
	c5.534-2.313,11.47-3.511,17.468-3.524L45.492,838.521z"/>
<path fill="#FFFFFF" d="M160.021,851.723c17.618,17.789,17.479,46.491-0.31,64.109c-17.789,17.617-46.492,17.479-64.109-0.311
	s-17.479-46.491,0.31-64.109c8.482-8.4,19.937-13.116,31.876-13.123C139.926,838.124,151.592,842.985,160.021,851.723z
	 M108.479,864.531c-10.664,10.664-10.664,27.953,0,38.616c10.664,10.664,27.953,10.664,38.616,0l0,0
	c10.876-10.442,11.227-27.726,0.784-38.602s-27.726-11.227-38.602-0.783c-0.267,0.256-0.528,0.517-0.784,0.783L108.479,864.531z"/>
<path fill="#FFFFFF" d="M234.164,888.598v-49.858h18.075v91.84l-54.109-51.599v49.916h-18.075V837.07L234.164,888.598z"/>
<path fill="#FFFFFF" d="M315.183,838.971l0.333,36.267v18.351c0.166,9.633-3.687,18.899-10.633,25.575
	c-6.621,6.782-15.705,10.598-25.184,10.575h-0.609c-7.221,0.049-14.277-2.162-20.178-6.325l9.125-15.841
	c2.52,2.134,5.613,3.476,8.893,3.858c0.739,0.112,1.486,0.171,2.234,0.175h0.392c0.729-0.007,1.456-0.064,2.176-0.175
	c3.943-0.51,7.596-2.347,10.357-5.208c3.49-3.314,5.436-7.938,5.368-12.751v-18.017l-0.334-36.542L315.183,838.971z"/>
<path fill="#FFFFFF" d="M397.042,838.739v54.385c0,20.029-16.236,36.266-36.266,36.266s-36.267-16.236-36.267-36.266v-54.385h18.191
	v54.341c0.04,9.967,8.108,18.035,18.075,18.075c4.798,0.038,9.404-1.885,12.751-5.323c3.49-3.315,5.436-7.938,5.367-12.752v-54.341
	h18.191H397.042z"/>
<path fill="#FFFFFF" d="M405.877,838.608h29.317c8.732-0.146,17.165,3.184,23.442,9.255c6.209,6.209,8.704,12.025,8.704,20.701v2.8
	c0.066,6.151-1.941,12.146-5.701,17.016c-3.801,5.367-6.992,6.935-12.925,9.183l20.309,31.393h-21.963l-23.051-35.251v35.251
	h-18.075L405.877,838.608z M436.877,882.128c3.173,0.187,6.246-1.144,8.283-3.583c2.475-2.482,3.777-5.9,3.583-9.4
	c0.167-3.329-1.144-6.563-3.583-8.835c-2.625-2.684-7.325-3.641-11.083-3.641h-10.154v25.4L436.877,882.128z"/>
<path fill="#FFFFFF" d="M500.662,914.984c-2.017,4.584-4.091,9.125-6.15,13.709h-19.453l40.908-91.651l41.024,91.651h-19.454
	c-2.016-4.525-4.032-9.124-6.049-13.65h-30.71L500.662,914.984z M524.104,899.027l-7.949-18.742l-8.008,18.742H524.104z"/>
<path fill="#FFFFFF" d="M611.057,838.71l-2.292,29.26h-13.535l-2.233-29.26h18.075H611.057z"/>
<path fill="#FFFFFF" d="M649.557,838.71v90.201h-18.075v-66.31l-9.009,2.67v-18.858L649.557,838.71z"/>
<path fill="#FFFFFF" d="M720,838.71l-28.477,90.201h-18.858l22.544-72.532h-20.31v9.342h-18.075V838.71H720z"/>
</svg>
