<svg id="Layer_1" data-name="Layer 1" xmlns="http://www.w3.org/2000/svg" viewBox="0 0 150.59 43.77"><defs><style>.cls-1{fill:#96044d;fill-rule:evenodd;}.cls-2{fill:#96044b;}</style></defs><title>logotkm</title><path class="cls-1" d="M34.48,12.67a21.89,21.89,0,1,0,21.6,21.89A21.86,21.86,0,0,0,34.48,12.67Zm17,33.17a21.13,21.13,0,0,1-3.2,3.79A20.81,20.81,0,0,1,45.17,52a20.15,20.15,0,0,1-7.08,2.78,24.11,24.11,0,0,1-2.6.32,17.88,17.88,0,0,1-2.34,0,24.76,24.76,0,0,1-2.53-.3,18.27,18.27,0,0,1-3.91-1.09,21.48,21.48,0,0,1-3.92-2,21.15,21.15,0,0,1-3.4-2.83,20.84,20.84,0,0,1-5.19-9.25A20,20,0,0,1,13.6,36a21.42,21.42,0,0,1,.11-4.22,20.63,20.63,0,0,1,1.24-4.87,20.33,20.33,0,0,1,1.61-3.26,22,22,0,0,1,2.22-3,21.25,21.25,0,0,1,4-3.49,21.67,21.67,0,0,1,3.52-1.88A19,19,0,0,1,30.38,14a17.9,17.9,0,0,1,2.28-.29,26.5,26.5,0,0,1,2.94,0,19.79,19.79,0,0,1,4.72.87,20.58,20.58,0,0,1,6.84,3.63A20.08,20.08,0,0,1,50,21a20.72,20.72,0,0,1,2.4,3.55,20.39,20.39,0,0,1,1.8,4.58,20.69,20.69,0,0,1,.57,3.2c0.06,0.68.08,1.37,0.12,2.05a20.62,20.62,0,0,1-1.36,7.39A20.05,20.05,0,0,1,51.5,45.84Z" transform="translate(-12.3 -12.67)"/><path class="cls-1" d="M54.3,33.17a18.18,18.18,0,0,0-.73-4.29A19.92,19.92,0,0,0,43.12,16.31a19.31,19.31,0,0,0-7.83-2.05c-0.77,0-1.54,0-2.31,0a15.63,15.63,0,0,0-3,.4,20.16,20.16,0,0,0-15.85,19.7,19.38,19.38,0,0,0,.2,2.9A20.12,20.12,0,0,0,33,54.52,19.32,19.32,0,0,0,38.73,54a19.66,19.66,0,0,0,10.75-6.53A19.88,19.88,0,0,0,54.3,33.17Zm-0.51,2.74c-0.05.68-.15,1.37-0.27,2a19.31,19.31,0,0,1-1.38,4.5,20,20,0,0,1-2.61,4.3,19.56,19.56,0,0,1-6.94,5.52,20,20,0,0,1-5.25,1.65,15.26,15.26,0,0,1-3,.21c-0.53,0-1.07,0-1.59,0C31.88,54,31,53.91,30.14,53.74a18.41,18.41,0,0,1-4.53-1.57A19.79,19.79,0,0,1,15.27,39.51a17.19,17.19,0,0,1-.59-3.43c0-.56,0-1.11,0-1.67a17.1,17.1,0,0,1,.93-6.2,19,19,0,0,1,2.19-4.57,20,20,0,0,1,2.34-2.94A19.8,19.8,0,0,1,23,18.23a19.4,19.4,0,0,1,4.85-2.48,17.86,17.86,0,0,1,4.56-1A19.44,19.44,0,0,1,45,18a19.64,19.64,0,0,1,2.58,2,19.11,19.11,0,0,1,2.51,2.87,19.78,19.78,0,0,1,3.51,8.69A14,14,0,0,1,53.81,34C53.79,34.65,53.83,35.28,53.79,35.91Z" transform="translate(-12.3 -12.67)"/><path class="cls-1" d="M49.78,31.52a15.36,15.36,0,0,0-5.85-9.47,15.65,15.65,0,0,0-9.72-3.29A15.88,15.88,0,0,0,22,24.42a15.08,15.08,0,0,0-3.36,12.92,15.07,15.07,0,0,0,5.37,9A15.62,15.62,0,0,0,33.25,50a15.43,15.43,0,0,0,3.94-.25,15.66,15.66,0,0,0,7.73-3.84,15.32,15.32,0,0,0,5-9.49A14.77,14.77,0,0,0,49.78,31.52ZM48,40.95A15,15,0,0,1,45,45.09a15.45,15.45,0,0,1-3.48,2.62,14.52,14.52,0,0,1-3,1.24,14.07,14.07,0,0,1-2.93.57,15.94,15.94,0,0,1-5.61-.5,15.43,15.43,0,0,1-5.66-3,15.19,15.19,0,0,1-3.84-4.83,15.5,15.5,0,0,1-1.45-4.57,14.87,14.87,0,0,1-.1-3.47,14.4,14.4,0,0,1,1.42-5.24,15.31,15.31,0,0,1,11.76-8.54c0.67-.09,1.35-0.09,2-0.13a14.21,14.21,0,0,1,4.2.59A14.93,14.93,0,0,1,41.3,21a15.21,15.21,0,0,1,8,11.18,15.8,15.8,0,0,1,.13,2.39A14.32,14.32,0,0,1,48,40.95Z" transform="translate(-12.3 -12.67)"/><path class="cls-1" d="M21.46,23.46c-0.09.07-.12,0.27-0.31,0.11a9.76,9.76,0,0,0-1-.78l0.69,1.1a0.4,0.4,0,0,1-.15.54,0.34,0.34,0,0,1-.18,0l-1.18-.33a0.22,0.22,0,0,0-.14,0l1,0.69a0.33,0.33,0,0,1,.14.15,1.17,1.17,0,0,1-.2.3,0.2,0.2,0,0,1-.13,0l-1.65-1.06c-0.09-.06-0.11-0.11-0.05-0.2v0c0.27-.46.27-0.46,0.78-0.33l1.25,0.34C20,23.43,19.78,23,19.51,22.53a0.21,0.21,0,0,1,0-.3c0.11-.11.21-0.24,0.33-0.38l0.87,0.75,0.71,0.62C21.54,23.3,21.57,23.37,21.46,23.46Z" transform="translate(-12.3 -12.67)"/><path class="cls-1" d="M48.18,47a0.54,0.54,0,0,1-.69.35l-1.41-.19,0.46,0.52c0.12,0.13.23,0.27,0.36,0.4s0.08,0.17,0,.26-0.23.22-.45,0l-1.26-1.44a0.45,0.45,0,0,1,.58-0.27l1.45,0.24-1-1,0.28-.31Z" transform="translate(-12.3 -12.67)"/><path class="cls-1" d="M53,32.73l-2.19.2a0.43,0.43,0,0,1,.12-0.63l1.05-1,0-.06-1.13.21a0.27,0.27,0,0,1-.31-0.36A0.17,0.17,0,0,1,50.61,31l1.91-.39c0.14,0,.16,0,0.2.14a0.52,0.52,0,0,1-.16.58c-0.29.29-.57,0.59-0.85,0.89l-0.15.17c0.42,0,.81-0.08,1.19-0.14,0.17,0,.23,0,0.23.17S53,32.6,53,32.73Z" transform="translate(-12.3 -12.67)"/><path class="cls-1" d="M52.57,37.7l-1.16.56-0.21.1c0.43,0.11.81,0.21,1.19,0.29,0.16,0,.2.09,0.14,0.23a0.6,0.6,0,0,0,0,.15c0,0.12-.07.14-0.19,0.11l-1.87-.48a0.15,0.15,0,0,1-.13-0.22,0.44,0.44,0,0,1,.31-0.36c0.4-.16.78-0.35,1.17-0.52l0.2-.11-1.25-.21c-0.12,0-.17-0.08-0.13-0.18s-0.05-.31.16-0.28l2.08,0.31A0.47,0.47,0,0,1,52.57,37.7Z" transform="translate(-12.3 -12.67)"/><path class="cls-1" d="M33.54,16.75l0.2-.09a0.57,0.57,0,0,0,.31-0.5,0.62,0.62,0,0,0-.69-0.63c-0.47,0-.95,0-1.42.07-0.12,0-.13.08-0.12,0.17,0.06,0.61.13,1.21,0.2,1.81,0,0.27,0,.26.31,0.25s0.17-.06.15-0.19,0-.5-0.06-0.75a0.72,0.72,0,0,1,.89.26c0.1,0.15.21,0.29,0.32,0.44a0.47,0.47,0,0,0,.63.11Zm-0.22-.34-0.93.09-0.05-.57c0.33,0,.64,0,1,0A0.25,0.25,0,0,1,33.32,16.41Z" transform="translate(-12.3 -12.67)"/><path class="cls-1" d="M21.5,45.25l-1.69,1.47A0.57,0.57,0,0,1,19.55,46c0.14-.44.24-0.89,0.35-1.33,0,0,0-.1,0-0.18-0.36.25-.7,0.48-1,0.73-0.14.11-.22,0.08-0.3-0.06s-0.19-.22,0-0.35c0.53-.34,1-0.7,1.56-1.06,0.12-.08.17-0.05,0.25,0a0.42,0.42,0,0,1,.07.45c-0.14.44-.26,0.88-0.38,1.33a1.52,1.52,0,0,0,0,.22L21,45.09c0.22-.18.19-0.23,0.41,0Z" transform="translate(-12.3 -12.67)"/><path class="cls-1" d="M45.65,49.3a1.75,1.75,0,0,1-1,.65A0.79,0.79,0,0,1,44,49.81c-0.1-.07-0.11-0.13,0-0.21l0.22-.2a0.85,0.85,0,0,0,1.25-.72A0.81,0.81,0,0,0,44.28,48a1.55,1.55,0,0,0-.43.37c-0.19.22-.17,0.23,0,0.48l0.56-.37,0.23,0.3-0.94.61a0.16,0.16,0,0,1-.13-0.06c-0.12-.18-0.24-0.37-0.34-0.56a0.2,0.2,0,0,1,0-.16,1.79,1.79,0,0,1,1.48-1.13,1.1,1.1,0,0,1,1.07.65A1,1,0,0,1,45.65,49.3Z" transform="translate(-12.3 -12.67)"/><path class="cls-1" d="M50.33,44L48.56,43c-0.18-.11-0.18.11-0.25,0.18a0.12,0.12,0,0,0,0,.22L49,43.79a0.66,0.66,0,0,1-.76.49c-0.15,0-.3,0-0.44,0a0.47,0.47,0,0,0-.52.42h1.19a0.44,0.44,0,0,1,0,.07,0.62,0.62,0,0,0,1.11.52c0.28-.38.54-0.78,0.81-1.17Zm-1,1a0.24,0.24,0,0,1-.35.06,0.26,0.26,0,0,1-.07-0.37c0.13-.22.28-0.44,0.43-0.68l0.48,0.31C49.65,44.54,49.49,44.77,49.33,45Z" transform="translate(-12.3 -12.67)"/><path class="cls-1" d="M19.05,44.15a1.08,1.08,0,0,1-1.27-.26,1.67,1.67,0,0,1-.49-1.15,0.76,0.76,0,0,1,.35-0.61,2.33,2.33,0,0,1,.21.27,0.18,0.18,0,0,1,0,.17,0.47,0.47,0,0,0-.11.43,1,1,0,0,0,.6.78,0.79,0.79,0,0,0,.86-0.28,0.68,0.68,0,0,0,.14-0.72,1.08,1.08,0,0,0-.47-0.64,0.89,0.89,0,0,0-.39,0l0.33,0.66-0.09.07c-0.22.13-.23,0.13-0.34-0.09s-0.23-.47-0.36-0.7a0.13,0.13,0,0,1,.08-0.22c0.18-.08.36-0.17,0.54-0.24a0.3,0.3,0,0,1,.23,0,1.8,1.8,0,0,1,.9,1.38A1.15,1.15,0,0,1,19.05,44.15Z" transform="translate(-12.3 -12.67)"/><path class="cls-1" d="M18.05,30.5a0.43,0.43,0,0,1-.31.36c-0.43.17-.84,0.37-1.26,0.56l-0.17.1,1.19,0.2c0.26,0,.33.17,0.2,0.4a0.17,0.17,0,0,1-.14.05l-2-.31a0.15,0.15,0,0,1-.1-0.06,0.56,0.56,0,0,1,.18-0.48L17,30.69l0.23-.11L16,30.29a0.35,0.35,0,0,1-.19-0.11,1.37,1.37,0,0,1,.1-0.36,0.18,0.18,0,0,1,.12,0l1.91,0.49A0.13,0.13,0,0,1,18.05,30.5Z" transform="translate(-12.3 -12.67)"/><path class="cls-1" d="M53,35a0.75,0.75,0,0,1-.67.54c0-.13,0-0.24-0.06-0.36a0.15,0.15,0,0,1,.07-0.11,0.75,0.75,0,0,0,.35-0.95A0.7,0.7,0,0,0,52,33.65a0.74,0.74,0,0,0-.73.39,1,1,0,0,0,.05,1,0.78,0.78,0,0,0,.35.11c0-.22,0-0.38,0-0.55s0.09-.15.2-0.15,0.18,0,.17.16c0,0.32,0,.64,0,1l-0.86-.06a0.15,0.15,0,0,1-.09-0.05,1.66,1.66,0,0,1,.05-2,1.16,1.16,0,0,1,1.24-.29,1,1,0,0,1,.73.94A2.69,2.69,0,0,1,53,35Z" transform="translate(-12.3 -12.67)"/><path class="cls-1" d="M41,52.28a0.57,0.57,0,0,1-.51.07l-1.08-.86-0.17-.14c0.11,0.42.19,0.8,0.3,1.17,0,0.16,0,.23-0.15.25s-0.26.12-.3-0.13c-0.12-.6-0.27-1.18-0.41-1.77a0.36,0.36,0,0,1,0-.24,0.37,0.37,0,0,1,.44,0c0.33,0.31.69,0.59,1,.89l0.09,0.07,0,0-0.4-1.27a2.1,2.1,0,0,1,.31-0.11,0.17,0.17,0,0,1,.13.09c0.22,0.63.44,1.27,0.65,1.9A0.15,0.15,0,0,1,41,52.28Z" transform="translate(-12.3 -12.67)"/><path class="cls-1" d="M31.22,51.68a1.11,1.11,0,0,0-.56-1.2,1.07,1.07,0,0,0-1.33.24,1.26,1.26,0,0,0-.3,1.23,1,1,0,0,0,.83.71,1.39,1.39,0,0,1,.87.33c0.11,0.11.18,0,.24-0.08s0-.14-0.06-0.2a2.53,2.53,0,0,1-.2-0.17A1.23,1.23,0,0,0,31.22,51.68Zm-0.78.53L30,51.9l-0.15.38a0.62,0.62,0,0,1-.45-0.81,1.45,1.45,0,0,1,.14-0.37,0.64,0.64,0,0,1,1.21.23A1,1,0,0,1,30.43,52.21Z" transform="translate(-12.3 -12.67)"/><path class="cls-1" d="M52.4,30.16c-0.12,0-.19,0-0.22-0.11-0.11-.43-0.23-0.86-0.35-1.3l-0.5.16,0.21,0.74c0,0.15.08,0.31,0.13,0.46s-0.06.14-.14,0.16-0.18.08-.22-0.07c-0.08-.32-0.18-0.64-0.27-1C51,29.16,51,29.1,51,29l-0.57.19,0.32,1.16c0,0.12.08,0.23-.11,0.27s-0.22,0-.26-0.17c-0.13-.47-0.27-0.94-0.41-1.41A0.15,0.15,0,0,1,50,28.82c0.61-.2,1.21-0.42,1.81-0.64a0.14,0.14,0,0,1,.21.1c0.16,0.56.32,1.12,0.49,1.67C52.6,30.11,52.52,30.13,52.4,30.16Z" transform="translate(-12.3 -12.67)"/><path class="cls-1" d="M46.92,21.14L46.75,21a0.19,0.19,0,0,1-.11-0.29,0.72,0.72,0,0,0-.56-0.81,0.82,0.82,0,0,0-.91.51,0.72,0.72,0,0,0,.24.92,1.13,1.13,0,0,0,.2.12c0.27,0.13.3,0.12,0.49-.13l-0.26-.27c-0.18-.17-0.18-0.17,0-0.34l0.11-.08c0.23,0.22.46,0.44,0.69,0.67a0.16,0.16,0,0,1,0,.16c-0.16.17-.33,0.33-0.5,0.48A0.2,0.2,0,0,1,46,22a1.49,1.49,0,0,1-1.26-1,1.22,1.22,0,0,1,.47-1.25,1,1,0,0,1,1.25,0,1.41,1.41,0,0,1,.6.7A0.74,0.74,0,0,1,46.92,21.14Z" transform="translate(-12.3 -12.67)"/><path class="cls-1" d="M24.78,20.32a1.39,1.39,0,0,1-1.28.82A0.69,0.69,0,0,1,23,20.81a2.77,2.77,0,0,1,.28-0.22,0.18,0.18,0,0,1,.15,0,0.71,0.71,0,0,0,1-.41,0.23,0.23,0,0,0-.3-0.28c-0.22.07-.44,0.18-0.66,0.25a1.64,1.64,0,0,1-.52.12,0.5,0.5,0,0,1-.49-0.62,1.35,1.35,0,0,1,1.42-.94,2.36,2.36,0,0,1,.41.24c-0.16.11-.25,0.18-0.35,0.23a0.18,0.18,0,0,1-.15,0,0.36,0.36,0,0,0-.45,0,1.8,1.8,0,0,0-.39.33,0.29,0.29,0,0,0,0,.27,0.28,0.28,0,0,0,.25,0c0.23-.08.45-0.19,0.68-0.27a1.25,1.25,0,0,1,.45-0.09A0.58,0.58,0,0,1,24.78,20.32Z" transform="translate(-12.3 -12.67)"/><path class="cls-1" d="M51.49,41.92a1.12,1.12,0,0,1,0,.14L50.7,43.55a0.13,0.13,0,0,1-.22.06c-0.09-.06-0.19-0.09-0.11-0.24,0.21-.37.4-0.76,0.6-1.14L50.5,42c-0.17.33-.35,0.66-0.51,1-0.07.15-.14,0.16-0.28,0.08a0.15,0.15,0,0,1-.06-0.25l0.51-1-0.56-.26L49,42.8l-0.31-.18c0.25-.51.5-1,0.74-1.5a0.16,0.16,0,0,1,.14-0.07Z" transform="translate(-12.3 -12.67)"/><path class="cls-1" d="M52.28,39.82q-0.27.77-.54,1.54c0,0.13-.11.14-0.23,0.09s-0.18-.09-0.12-0.24c0.15-.39.29-0.78,0.44-1.2l-0.5-.15-0.35,1c-0.11.31-.13,0.31-0.43,0.11L51,39.74l-0.59-.18c-0.14.38-.28,0.74-0.41,1.11a0.15,0.15,0,0,1-.24.11,0.16,0.16,0,0,1-.11-0.25c0.17-.45.32-0.9,0.47-1.36a0.15,0.15,0,0,1,.22-0.11l1.82,0.54C52.29,39.63,52.33,39.69,52.28,39.82Z" transform="translate(-12.3 -12.67)"/><path class="cls-1" d="M24.75,48.5c-0.3.47-.6,0.94-0.9,1.41l-0.11.16h0c-0.41-.19-0.41-0.2-0.17-0.56l0.27-.39-0.94-.69-0.54.67-0.38-.3,0.89-1.08c0.14-.17.29-0.33,0.41-0.51s0.19-.14.3,0a2.08,2.08,0,0,0,.17.15l-0.62.8L24,48.8,24.56,48h0.07C25,48.25,25,48.15,24.75,48.5Z" transform="translate(-12.3 -12.67)"/><path class="cls-1" d="M38.67,15.86A1.09,1.09,0,0,0,37.55,17a1.14,1.14,0,0,0,1.15,1.18A1.21,1.21,0,0,0,39.86,17,1.11,1.11,0,0,0,38.67,15.86Zm0.72,1.28a0.73,0.73,0,0,1-.92.65A0.69,0.69,0,0,1,38,17a1.83,1.83,0,0,1,0-.21,0.68,0.68,0,0,1,.86-0.57A0.69,0.69,0,0,1,39.39,17.14Z" transform="translate(-12.3 -12.67)"/><path class="cls-1" d="M48.95,22.39l-0.18.14c-0.1.1-.17,0.06-0.25,0l-0.77-1-0.39.34c0.23,0.28.44,0.55,0.66,0.81,0.09,0.11.12,0.18,0,.29s-0.21,0-.29-0.06l-0.64-.79-0.46.4c0.24,0.3.46,0.59,0.7,0.87,0.09,0.11.1,0.18,0,.28a0.16,0.16,0,0,1-.28,0q-0.41-.52-0.85-1c-0.1-.11-0.11-0.18,0-0.28l1.4-1.29a0.21,0.21,0,0,1,.18,0C48.16,21.47,48.55,21.92,48.95,22.39Z" transform="translate(-12.3 -12.67)"/><path class="cls-1" d="M37.42,50.82A1.13,1.13,0,0,0,36.28,52a1.09,1.09,0,0,0,1.11,1.17,1.07,1.07,0,0,0,1.16-1.08A1.18,1.18,0,0,0,37.42,50.82Zm0.67,1.5a0.65,0.65,0,0,1-.67.47,0.58,0.58,0,0,1-.6-0.41,1.77,1.77,0,0,1-.06-0.66,0.59,0.59,0,0,1,.51-0.5,0.6,0.6,0,0,1,.66.28A1,1,0,0,1,38.09,52.32Z" transform="translate(-12.3 -12.67)"/><path class="cls-1" d="M45.31,19.09a0.14,0.14,0,0,1-.24,0l-1-.68-0.27.44,0.77,0.53c0.27,0.19.27,0.21,0,.46l-1-.66-0.33.52,1.06,0.74a0.94,0.94,0,0,1-.15.2,0.2,0.2,0,0,1-.17,0l-1.25-.83,0-.06,1.15-1.93,1.22,0.81a1.57,1.57,0,0,0,.16.11C45.42,18.86,45.43,19,45.31,19.09Z" transform="translate(-12.3 -12.67)"/><path class="cls-1" d="M17.59,36.53a0.18,0.18,0,0,1-.13.1l-0.92.1-1,.09c-0.14,0-.21,0-0.2-0.17a0.34,0.34,0,0,0,0-.11c0-.15,0-0.19.17-0.19s0.47,0,.75-0.06L16,36a4.81,4.81,0,0,0-.45-0.47,0.76,0.76,0,0,1-.2-0.88l0.9,1,1.23-1.06a0.48,0.48,0,0,1-.09.64l-0.82.71a0.49,0.49,0,0,0,.57.29l0.17,0C17.55,36.17,17.63,36.25,17.59,36.53Z" transform="translate(-12.3 -12.67)"/><path class="cls-1" d="M22.65,22.26a1.22,1.22,0,0,1-.9.46,1.07,1.07,0,0,1-.6-0.32c-0.29-.26-0.56-0.53-0.85-0.78s0-.22.05-0.32,0.16-.18.29,0q0.45,0.45.92,0.88a0.44,0.44,0,0,0,.71,0,0.46,0.46,0,0,0,.1-0.73c-0.27-.33-0.55-0.64-0.84-0.95s0-.23.06-0.32,0.18-.19.32,0,0.51,0.59.76,0.89A0.85,0.85,0,0,1,22.65,22.26Z" transform="translate(-12.3 -12.67)"/><path class="cls-1" d="M27.13,19.11l-1.8-1.44a0.19,0.19,0,0,0-.14,0,0.38,0.38,0,0,0-.34.47c0.06,0.65.12,1.3,0.19,1.95a1.27,1.27,0,0,0,.05.21c0.38-.14.4-0.17,0.34-0.54a1,1,0,0,1,0-.25,0.26,0.26,0,0,1,.08-0.18c0.2-.12.42-0.22,0.62-0.34a0.17,0.17,0,0,1,.25,0,2.86,2.86,0,0,0,.32.28,0.22,0.22,0,0,0,.16.06,2.5,2.5,0,0,0,.33-0.15A0.27,0.27,0,0,0,27.13,19.11Zm-1.79-.16c0-.27,0-0.51-0.05-0.8l0.63,0.5Z" transform="translate(-12.3 -12.67)"/><path class="cls-1" d="M31.85,17.71l-1.24-1.83a0.23,0.23,0,0,0-.29-0.05A0.26,0.26,0,0,0,30,16c-0.12.56-.25,1.11-0.37,1.66,0,0.2-.06.4-0.1,0.6,0.38,0,.43,0,0.49-0.35s0.09-.43.57-0.53,0.47-.09.72,0.32a0.34,0.34,0,0,0,.56.11A0.66,0.66,0,0,0,31.85,17.71Zm-1.64-.6,0.2-.8L30.88,17Z" transform="translate(-12.3 -12.67)"/><path class="cls-1" d="M22.66,46.82l-0.22.11a0.16,0.16,0,0,1-.23,0c-0.15-.16-0.31-0.31-0.47-0.45a0.2,0.2,0,0,1-.06-0.29,2.55,2.55,0,0,0,.17-0.38,0.2,0.2,0,0,0,0-.15c-0.07-.1-0.15-0.18-0.24-0.28a0.72,0.72,0,0,0-.08.12L20.7,47.53c-0.07.17,0.09,0.22,0.16,0.31a0.21,0.21,0,0,0,.27.08l1.1-.44,1-.47C23,46.68,23,46.67,22.66,46.82Zm-1.5.62,0.29-.77,0.4,0.51Z" transform="translate(-12.3 -12.67)"/><path class="cls-1" d="M18.67,41c-0.54,0-.54,0-0.73-0.53s-0.15-.4.17-0.68,0.25-.31.05-0.6l-0.06,0-1.67,1.59a0.42,0.42,0,0,0,.21.5c0.44,0,.88.08,1.32,0.1s0.69,0,1,0C19,41.11,18.87,41,18.67,41Zm-1.76-.08a1.48,1.48,0,0,0,.16-0.17,0.39,0.39,0,0,0,0-.11l0.39-.27L17.72,41Z" transform="translate(-12.3 -12.67)"/><path class="cls-1" d="M19,27.78a0.73,0.73,0,0,1-.94.39c-0.49-.15-1-0.35-1.44-0.52a0.36,0.36,0,0,1,0-.08c0.12-.39.12-0.39,0.5-0.24s0.66,0.27,1,.4a0.54,0.54,0,0,0,.45-1c-0.36-.2-0.73-0.37-1.1-0.55l-0.18-.1a0.26,0.26,0,0,1,0,0c0.16-.4.16-0.4,0.54-0.21s0.5,0.27.75,0.38A0.94,0.94,0,0,1,19,27.78Z" transform="translate(-12.3 -12.67)"/><path class="cls-1" d="M17.59,33.62a0.84,0.84,0,0,1-1,.84l-1.14,0-0.18,0a0.16,0.16,0,0,1,0,0c0-.43,0-0.42.4-0.4s0.78,0,1.17,0a0.34,0.34,0,0,0,.35-0.27c0.12-.45,0-0.73-0.44-0.78s-0.79-.1-1.18-0.13a0.17,0.17,0,0,1-.19-0.24l0-.25,0.92,0.1,0.44,0.06A0.89,0.89,0,0,1,17.59,33.62Z" transform="translate(-12.3 -12.67)"/><path class="cls-1" d="M33.47,51.15c-0.05.46-.07,0.92-0.15,1.37a0.74,0.74,0,0,1-.84.67l-0.36-.06a0.76,0.76,0,0,1-.64-1c0.07-.41.16-0.81,0.23-1.23,0-.21.15-0.17,0.29-0.15s0.17,0.09.14,0.24c-0.08.42-.16,0.84-0.2,1.27a0.42,0.42,0,0,0,.48.52,0.41,0.41,0,0,0,.47-0.43C32.95,52,33,51.54,33,51.12c0-.23.17-0.13,0.28-0.14S33.48,51,33.47,51.15Z" transform="translate(-12.3 -12.67)"/><path class="cls-1" d="M37.26,17.35a1,1,0,0,1-1.15.48,1,1,0,0,1-.83-0.91,2.17,2.17,0,0,1,0-.53A1,1,0,0,1,36,15.56a1.1,1.1,0,0,1,1.2.34,2.11,2.11,0,0,1,.21.45,1.61,1.61,0,0,1-.34,0,0.26,0.26,0,0,1-.18-0.11,0.54,0.54,0,0,0-.59-0.36,0.56,0.56,0,0,0-.57.39,1.16,1.16,0,0,0,0,.75,0.59,0.59,0,0,0,.53.44,0.55,0.55,0,0,0,.59-0.34C37,17,37,17,37.25,17.09S37.3,17.27,37.26,17.35Z" transform="translate(-12.3 -12.67)"/><path class="cls-1" d="M50.55,24.54a0.86,0.86,0,0,0-.78-0.64,1.4,1.4,0,0,0-1.2.48,0.88,0.88,0,0,0-.17,1,0.91,0.91,0,0,0,.88.56,1.54,1.54,0,0,0,1-.45A0.9,0.9,0,0,0,50.55,24.54Zm-0.46.63a1.19,1.19,0,0,1-.84.4,0.55,0.55,0,0,1-.41-0.95,1.19,1.19,0,0,1,.82-0.37,0.52,0.52,0,0,1,.52.32A0.53,0.53,0,0,1,50.1,25.17Z" transform="translate(-12.3 -12.67)"/><path class="cls-1" d="M25.44,50.34l-0.13.25,0.52,0.26c0.29,0.14.3,0.16,0.06,0.47l-2-1.06,0.21-.33,0.75,0.43,0.81-1.45a0.3,0.3,0,0,1,.16-0.15,0.79,0.79,0,0,1,.3.16,0.28,0.28,0,0,1,0,.17Z" transform="translate(-12.3 -12.67)"/><path class="cls-1" d="M51.41,26.89c-0.1.06-.17,0.06-0.23-0.06s-0.25-.53-0.37-0.81l-0.49.23c0.11,0.23.2,0.45,0.31,0.66s0,0.18-.09.23-0.19.06-.25-0.08-0.2-.43-0.3-0.65l-0.87.4L49,26.63a0.13,0.13,0,0,1,.07-0.22l1.73-.81c0.12-.05.18,0,0.24,0.08q0.22,0.5.46,1C51.6,26.81,51.51,26.83,51.41,26.89Z" transform="translate(-12.3 -12.67)"/><path class="cls-1" d="M18.12,38.92a0.19,0.19,0,0,1-.09.16l-1.92.54a0.12,0.12,0,0,1-.17-0.11,0.46,0.46,0,0,0,0-.15c-0.07-.15,0-0.2.14-0.24l1.54-.39,0.09,0c-0.07-.33-0.13-0.66-0.2-1,0-.12,0-0.17.12-0.18s0.21-.09.25,0.1C17.93,38.07,18,38.49,18.12,38.92Z" transform="translate(-12.3 -12.67)"/><path class="cls-1" d="M28.59,18.63c-0.39.13-.77,0.28-1.14,0.43A0.14,0.14,0,0,1,27.23,19q-0.38-.89-0.77-1.77A0.14,0.14,0,0,1,26.54,17c0.3-.13.3-0.14,0.42,0.17l0.54,1.33,0.06,0.12,0.89-.33a0.15,0.15,0,0,1,.24.11C28.73,18.51,28.73,18.58,28.59,18.63Z" transform="translate(-12.3 -12.67)"/><path class="cls-1" d="M36,53.28l-1.21,0a0.15,0.15,0,0,1-.19-0.18c0-.58,0-1.16,0-1.75,0-.37,0-0.38.44-0.31v1.87c0.33,0,.63,0,0.93,0s0.19,0.08.21,0.22S36.16,53.28,36,53.28Z" transform="translate(-12.3 -12.67)"/><path class="cls-1" d="M18.37,29.49a0.61,0.61,0,0,1-.73.46,0.15,0.15,0,0,1-.14-0.22c0-.1,0-0.29.21-0.23A0.23,0.23,0,0,0,18,29.35,0.24,0.24,0,0,0,17.84,29c-0.45-.15-0.89-0.31-1.34-0.45-0.18-.06-0.24-0.13-0.15-0.31s0.05-.13.09-0.23c0.56,0.21,1.1.39,1.63,0.61A0.6,0.6,0,0,1,18.37,29.49Z" transform="translate(-12.3 -12.67)"/><path class="cls-1" d="M41.22,18.64c0,0.06,0,.09,0,0.13S41,19,40.87,18.9s-0.64-.25-1-0.36a0.14,0.14,0,0,1-.11-0.21c0.2-.61.41-1.22,0.6-1.84a0.13,0.13,0,0,1,.21-0.11c0.28,0.1.29,0.09,0.19,0.38l-0.52,1.5Z" transform="translate(-12.3 -12.67)"/><path class="cls-1" d="M42.72,19.38l-0.07.14c-0.06.16-.14,0.18-0.29,0.09-0.3-.17-0.62-0.33-0.94-0.48a0.14,0.14,0,0,1-.08-0.22c0.27-.59.54-1.17,0.8-1.76,0.09-.2.2-0.07,0.31,0s0.19,0.1.11,0.25c-0.25.5-.49,1-0.74,1.53Z" transform="translate(-12.3 -12.67)"/><path class="cls-1" d="M48.86,46.26l-0.33.38-1.08-.92c-0.17-.14-0.33-0.29-0.5-0.42s-0.1-.18,0-0.28,0.12-.24.29-0.09C47.77,45.37,48.3,45.8,48.86,46.26Z" transform="translate(-12.3 -12.67)"/><path class="cls-1" d="M52.53,36.56c-0.51-.07-1-0.12-1.54-0.18-0.28,0-.36-0.17-0.23-0.42a0.13,0.13,0,0,1,.1-0.05l2,0.18,0.1,0C53,36.59,53,36.62,52.53,36.56Z" transform="translate(-12.3 -12.67)"/><path class="cls-1" d="M42.78,50.34a1.5,1.5,0,0,0-.38.34,1.25,1.25,0,0,0,0,.48,1.33,1.33,0,0,0-1-.3,0.52,0.52,0,0,0-.1-0.79,0.94,0.94,0,0,0,.83-0.43A0.83,0.83,0,0,0,42.78,50.34Z" transform="translate(-12.3 -12.67)"/><path class="cls-1" d="M28.16,51.44a1.2,1.2,0,0,0-1,.26,0.88,0.88,0,0,1-.06-0.22,0.32,0.32,0,0,0-.26-0.35c-0.19-.07-0.2-0.12,0-0.23a0.53,0.53,0,0,0,.29-0.43,1.18,1.18,0,0,1,.08-0.23,0.81,0.81,0,0,0,.9.32,1.4,1.4,0,0,0-.17.46A1.32,1.32,0,0,0,28.16,51.44Z" transform="translate(-12.3 -12.67)"/><path class="cls-1" d="M29.41,18.34a1.5,1.5,0,0,1-.34.11A0.28,0.28,0,0,1,29,18.3c-0.18-.58-0.36-1.16-0.54-1.74-0.08-.24-0.08-0.24.17-0.31l0.18,0a0.36,0.36,0,0,1,.08.11q0.28,1,.56,1.95A0.11,0.11,0,0,1,29.41,18.34Z" transform="translate(-12.3 -12.67)"/><path class="cls-1" d="M34.29,51.27c0,0.52,0,1-.06,1.55,0,0.15,0,.29,0,0.43l0,0c-0.42,0-.42,0-0.39-0.37s0.06-1.11.09-1.67c0-.12,0-0.24.18-0.22S34.31,51,34.29,51.27Z" transform="translate(-12.3 -12.67)"/><path class="cls-1" d="M44.9,37.74c-0.08-.61-0.16-1.23-0.25-1.84-0.19-1.23-.43-2.45-0.58-3.68A11.15,11.15,0,0,1,44,29.5a11.51,11.51,0,0,1,.37-1.86,7.59,7.59,0,0,1,1-2.23l-0.78-.68-1.9-1.66A0.29,0.29,0,0,0,42.52,23l-1.78.46a9.83,9.83,0,0,1-4.16.11,15.19,15.19,0,0,1-2.17-.69,0.6,0.6,0,0,0-.42,0,14.7,14.7,0,0,1-2.08.65,10.63,10.63,0,0,1-4.07,0A14.09,14.09,0,0,1,25.6,23a0.24,0.24,0,0,0-.19.06l-1.77,1.48-1,.85c0.23,0.43.45,0.83,0.65,1.24a8,8,0,0,1,.77,2.58A12.86,12.86,0,0,1,24,32.3c-0.1.87-.27,1.73-0.41,2.6s-0.3,1.87-.45,2.81a15.72,15.72,0,0,0-.29,3.42,7.13,7.13,0,0,0,.55,2.2,4.76,4.76,0,0,0,.47.9,5.82,5.82,0,0,0,2.66,2,18.83,18.83,0,0,0,4.28,1.19,6.1,6.1,0,0,1,1.92.6l1.57,0.87c0.07,0,.17-0.12.27-0.18a12.71,12.71,0,0,1,1.61-.88,12.37,12.37,0,0,1,1.91-.49,13.84,13.84,0,0,0,4.63-1.66,4.4,4.4,0,0,0,1.59-1.56,6.56,6.56,0,0,0,.87-2.78,8.15,8.15,0,0,0,0-1.15C45.12,39.36,45,38.55,44.9,37.74ZM23.33,25.85L24,25.26l1.59-1.35a1.93,1.93,0,0,0,.25-0.21,0.44,0.44,0,0,1,.55-0.09c0.74,0.2,1.5.37,2.25,0.52a8.34,8.34,0,0,0,2.08.09,9.22,9.22,0,0,0,2-.29c0.3-.08.59-0.2,0.89-0.31l0.24-.08V34h-1a2.8,2.8,0,0,1,.11-1.1,0.63,0.63,0,0,0-.05-0.72,0.3,0.3,0,0,1,0-.36,2.76,2.76,0,0,0,.22-0.65,1.09,1.09,0,0,0-.72-1.26,3.35,3.35,0,0,1-1.56-1.38l0-.06a2.7,2.7,0,0,1-.9,1,8.52,8.52,0,0,1-.79.47,1.16,1.16,0,0,0-.58,1.38,1.92,1.92,0,0,0,.1.27,0.6,0.6,0,0,1,0,.73,0.62,0.62,0,0,0,0,.53,1.44,1.44,0,0,1,.12.67c0,0.16,0,.32,0,0.49H27.6c0-.48,0-0.93-0.05-1.39a0.46,0.46,0,0,1,.1-0.22,0.46,0.46,0,0,0,0-.62,0.26,0.26,0,0,1,0-.12c0-.3,0-0.6,0-0.9a3.87,3.87,0,0,1,0-.6,2,2,0,0,1,.17-0.56,0.4,0.4,0,0,0-.11-0.5,0.61,0.61,0,0,1-.17-0.35c0-.41,0-0.83,0-1.24a0.69,0.69,0,0,1,.1-0.33,0.47,0.47,0,0,0,0-.66,0.19,0.19,0,0,1,0-.15,0.82,0.82,0,0,0-.36-1.11,2.7,2.7,0,0,1-.9-1,1.93,1.93,0,0,0-.15.21,2.37,2.37,0,0,1-.76.82,0.85,0.85,0,0,0-.34,1.21c-0.27.35-.25,0.39,0,0.8a1.52,1.52,0,0,1,.07.65c0,0.25,0,.51,0,0.77a0.54,0.54,0,0,1-.3.52A8.82,8.82,0,0,0,23.33,25.85Zm9.1,7.05C32.06,33,31.7,33,31.33,33c-0.18,0-.37,0-0.56,0v0l-1.6-.18a0.35,0.35,0,0,1-.32-0.31,0.24,0.24,0,0,1,.26-0.31c0.21,0,.42.06,0.63,0.08a8.51,8.51,0,0,0,2.5-.07h0.09a0.3,0.3,0,0,1,.37.21A0.38,0.38,0,0,1,32.43,32.91Zm0,0.88a0.18,0.18,0,0,1-.19.21H30c0-.21,0-0.4,0-0.59s0.08-.16.2-0.16c0.47,0,.95,0,1.42,0a5.12,5.12,0,0,0,.51-0.08,0.24,0.24,0,0,1,.3.24C32.47,33.51,32.47,33.65,32.47,33.78Zm-5.28-1.54a1.46,1.46,0,0,1-.87.25c-0.28,0-.57,0-0.85-0.08a0.81,0.81,0,0,1-.35-0.18A0.29,0.29,0,0,1,25,32a0.24,0.24,0,0,1,.16-0.16,3.8,3.8,0,0,1,.51,0l1.23,0a0.31,0.31,0,0,1,.15,0,0.46,0.46,0,0,1,.24.18A0.33,0.33,0,0,1,27.19,32.24Zm0,1.79-1,0A0.18,0.18,0,0,1,26,33.87c0-.26,0-0.51,0-0.77a0.38,0.38,0,0,1,.39-0.44,4.9,4.9,0,0,1,.57,0,0.25,0.25,0,0,1,.26.26C27.2,33.28,27.19,33.63,27.19,34ZM25.4,26.6c0.37,0,.75,0,1.12,0a2.17,2.17,0,0,1,.44,0,0.28,0.28,0,0,1,.19.16,0.32,0.32,0,0,1-.1.26,1.31,1.31,0,0,1-1,.22,1,1,0,0,1-.8-0.2,0.36,0.36,0,0,1-.1-0.27A0.26,0.26,0,0,1,25.4,26.6ZM25.25,26a0.92,0.92,0,0,1,1.84,0,0.37,0.37,0,0,1-.34.38l-0.23,0H26.29v0l-0.8-.07A0.36,0.36,0,0,1,25.25,26ZM27,28.94L26.41,29a0.24,0.24,0,0,1-.31-0.24,9.48,9.48,0,0,1,0-1,0.28,0.28,0,0,1,.34-0.28h0.1c0.41,0,.48.06,0.49,0.47S27,28.58,27,28.94Zm-1.8.25a0.81,0.81,0,0,1,.32,0,4,4,0,0,0,1.32,0,0.51,0.51,0,0,1,.28,0,0.22,0.22,0,0,1,0,.4,1.44,1.44,0,0,1-.86.25c-0.29,0-.58,0-0.87-0.08a0.69,0.69,0,0,1-.32-0.16A0.22,0.22,0,0,1,25.24,29.19Zm1.94,2.16a0.29,0.29,0,0,1-.18.21,3.6,3.6,0,0,1-.72.08,0.29,0.29,0,0,1-.2-0.18A5,5,0,0,1,26,30.85a4.56,4.56,0,0,1,.09-0.57A0.31,0.31,0,0,1,26.46,30h0.42a0.26,0.26,0,0,1,.28.26C27.18,30.64,27.19,31,27.18,31.35Zm-2.49.42V29.83h0.08A8.24,8.24,0,0,1,24.7,31.77Zm0.09,1c0,0.36,0,.71-0.06,1.07s-0.07.31-.39,0.25l0.26-1.69,0.08,0A1.41,1.41,0,0,1,24.79,32.73ZM24.22,43.35l-0.06,0c-0.11-.25-0.23-0.51-0.31-0.77a10.71,10.71,0,0,1-.33-1.11,6.23,6.23,0,0,1-.06-0.78,0.16,0.16,0,0,1,.12-0.2l0.78-.29C24.31,41.28,24.26,42.32,24.22,43.35ZM23.44,40a0.82,0.82,0,0,1,.41-0.21l0,0.06-0.41.22Zm1.36,3.49L25,43.7c-0.16.25-.2,0.25-0.44,0Zm-0.15-.33,0.2-.23L25,43.09C24.87,43.15,24.84,43.35,24.64,43.2ZM25,44.49l-0.22-.25c0.1-.07.1-0.07,0.33,0.12Zm-0.27-5.65a2,2,0,0,1-1.28.68c0.06-.44.1-0.84,0.16-1.23,0.1-.71.23-1.42,0.33-2.14,0.07-.52.06-0.52,0.58-0.52h8.58a0.38,0.38,0,0,1,.18,0l-0.17.09a39.24,39.24,0,0,1-5.19,2.11c-0.71.27-1.43,0.52-2.14,0.79a1,1,0,0,1-.58,0A0.42,0.42,0,0,0,24.75,38.84Zm0.62,4,0.17-.16,0.14,0.1,0.12,0.1C25.61,43.1,25.61,43.1,25.36,42.86Zm0.51,0.63-0.2.22-0.24-.23,0.2-.17Zm-0.53.17,0.21,0.19L25.38,44ZM25.68,44l0.21,0.2-0.17.17-0.21-.19ZM26,44.28l0,0.34h0l-0.17-.16Zm-0.49.52,0.18-.2L26,44.84l-0.21.22ZM26,45.18L26.13,45l0,0.32Zm5.17,1.66-0.75-.14a16.83,16.83,0,0,1-3.16-.9c-0.22-.09-0.44-0.19-0.66-0.3a0.26,0.26,0,0,1-.12-0.17c-0.21-1.56-.42-3.12-0.63-4.68l-0.12-.82L31.45,38ZM29.3,38.19v0l-3.23,1V39.19Zm-1,.09,2.79-1,0,0.06-2.8,1v0Zm3.84,6.61-0.29.36-0.27-.3,0.28-.32ZM32,44.47l0.17-.2,0,0.38Zm-0.12,1.1,0.3,0.33-0.36.43C31.53,46,31.54,45.92,31.91,45.57ZM32,45.4l0.21-.26c0,0.19,0,.32,0,0.52Zm-0.3-8.23,0-.06,0.52-.19,0,0.07ZM31.86,42l-0.14-.14,0.1-.13C32,41.75,32,41.86,31.86,42Zm0,0.33L32,42.45l-0.2.24-0.14-.1Zm0,0.67,0.26,0.23-0.21.24-0.27-.22ZM31.64,44.1l0.23-.4L32.19,44l-0.31.36-0.3-.28Zm0.11,0.39-0.18.21V44.33Zm0,0.92-0.21.26v-0.5Zm-0.21.9,0.15,0.21-0.18.22V46.32Zm0,0.66,0.22-.27L32.1,47.1Zm0.68,0L32,46.53l0.33-.39c0,0.31,0,.58,0,0.85h0Zm0.51-2.72,0.27,0.28-0.21.27-0.25-.32Zm0-.32-0.21-.22,0.17-.22,0.2,0.23Zm0.1,1.81-0.28-.3,0.23-.3C33.14,45.45,33.15,45.46,32.89,45.78Zm0,0.33,0.33,0.32L33,46.76l-0.36-.31Zm0.46,0.48,0.06,0.53-0.25-.23Zm-0.07-.37L33,45.93l0.14-.2,0.1-.13,0.07,0.59Zm-0.12-1.46,0.06,0.55C32.94,45,32.94,45,33.19,44.75Zm-0.08-.43-0.19-.2,0.18-.23c0,0.17,0,.29,0,0.41ZM33,43.19c0,0.12,0,.22,0,0.35C32.84,43.35,32.84,43.35,33,43.19Zm-0.31,0-0.24-.27,0.2-.21,0.24,0.22Zm-0.06-.77-0.27-.24L32.6,42l0.27,0.24Zm-0.09-.74-0.19-.17,0.14-.13,0.17,0.16Zm-0.18,1.44,0.2,0.23-0.17.22C32.42,43.42,32.42,43.3,32.41,43.14Zm0,0.78,0.2,0.19-0.14.19h0C32.47,44.19,32.46,44.08,32.45,43.92Zm0,0.83c0.25,0.24.25,0.24,0,.46Zm0.08,1.05h0L32.77,46l-0.17.24Zm0.09,1.44,0-.56,0.29,0.24-0.21.33Zm0.81,0.48-0.63-.31,0.22-.35A0.69,0.69,0,0,1,33.47,47.73ZM33.87,48H33.8c0-.15,0-0.3-0.06-0.45q-0.25-2.2-.5-4.41c-0.15-1.32-.29-2.63-0.44-4-0.05-.5-0.12-1-0.17-1.51a0.19,0.19,0,0,1,.07-0.16L33.87,37V48ZM32.34,36.87l1.53-.53A4.28,4.28,0,0,1,32.34,36.87Zm1.54-.78a0.24,0.24,0,0,1-.15.12l-1.72.6-4.42,1.55L25.74,39a0.21,0.21,0,0,1-.16,0L26,38.8l7.59-3a2.6,2.6,0,0,0,.26-0.14A3.56,3.56,0,0,1,33.88,36.09Zm0.35-3.68h0a1.7,1.7,0,0,1,.12.27,0.27,0.27,0,0,0,.38.22,3.24,3.24,0,0,1,.48,0l-0.32.76c0.22,0.17.43,0.35,0.66,0.52a0.2,0.2,0,0,0,.18,0c0.21-.12.41-0.26,0.65-0.4,0,0.26.1,0.5,0.12,0.73a0.18,0.18,0,0,0,.2.2,2.84,2.84,0,0,1,.55.08,0.19,0.19,0,0,0,.27-0.14c0.09-.21.19-0.4,0.3-0.64l0.53,0.78,0.77-.28a0.19,0.19,0,0,0,.07-0.14c0-.24,0-0.48,0-0.75L40,33.91c0.19-.21.38-0.41,0.56-0.63a0.2,0.2,0,0,0,0-.17c-0.11-.2-0.23-0.4-0.36-0.63,0.26,0,.49,0,0.72-0.07a0.24,0.24,0,0,0,.17-0.13c0.06-.25.11-0.51,0.16-0.78l-0.75-.43,0.65-.39a0.16,0.16,0,0,0,.09-0.23c-0.07-.2-0.14-0.4-0.2-0.6a0.15,0.15,0,0,0-.17-0.13H40.15l0-.07a0.34,0.34,0,0,1,.14-0.07c0.32,0,.32,0,0.46-0.28l0.09-.18,0.32,0.47h0a1.07,1.07,0,0,0,.46-0.2,1.16,1.16,0,0,0,0-.53A3.55,3.55,0,0,0,42,29a0.23,0.23,0,0,0,.19,0c0.31-.3.31-0.31,0.1-0.7l0-.1,0.26,0,0.27,0,0.12-.55-0.46-.27,0.48-.3c0-.15-0.09-0.3-0.15-0.44a0.2,0.2,0,0,0-.14-0.1c-0.13,0-.27,0-0.44,0a3,3,0,0,0,.17-0.37,0.22,0.22,0,0,0,0-.19c-0.3-.32-0.3-0.32-0.71-0.12l-0.1,0-0.06-.56c-0.17,0-.33-0.08-0.5-0.11a0.19,0.19,0,0,0-.15.07c-0.09.13-.16,0.26-0.26,0.42-0.1-.14-0.18-0.28-0.28-0.4a0.22,0.22,0,0,0-.18-0.06c-0.47.13-.46,0.13-0.47,0.61,0,0,0,.09,0,0.15-0.16-.06-0.3-0.11-0.44-0.18a0.14,0.14,0,0,0-.21,0c-0.09.13-.2,0.25-0.3,0.39L39,26.66l-0.4.09a0.32,0.32,0,0,0-.09,0c0,0.17-.08.34-0.1,0.51a0.21,0.21,0,0,0,.09.16,2.63,2.63,0,0,0,.33.15c-0.11.17-.11,0.17-0.79,0l-0.5.82c-0.17-.24-0.32-0.45-0.47-0.67a0.16,0.16,0,0,0-.23-0.08c-0.21.08-.43,0.16-0.65,0.22a0.16,0.16,0,0,0-.13.19c0,0.26,0,.53,0,0.84-0.28-.11-0.52-0.2-0.76-0.31a0.18,0.18,0,0,0-.27.07c-0.16.22-.33,0.42-0.5,0.64L35,30.05l-0.75.14V23.43c0.54,0.19,1.06.4,1.6,0.54a11.84,11.84,0,0,0,1.5.26,4.87,4.87,0,0,0,1,0,13.42,13.42,0,0,0,1.54-.18,12.92,12.92,0,0,0,1.78-.43,0.65,0.65,0,0,1,.77.16c0.72,0.68,1.48,1.32,2.22,2a0.12,0.12,0,0,1,0,.19,8.08,8.08,0,0,0-1,2.18,6.94,6.94,0,0,0-.3,1.77,17.4,17.4,0,0,0,.24,3.43c0.09,0.58.2,1.16,0.3,1.73a1.08,1.08,0,0,1,0,.13H34.23V32.42Zm0-.44V31.33l0.5,0.22ZM40,31.43a2.33,2.33,0,0,1-.67,1.45,2.36,2.36,0,0,1-2,.7,2.31,2.31,0,0,1-1.47-.69,2.37,2.37,0,0,1-.65-1.93A2.39,2.39,0,0,1,40,31.43Zm-0.76-4.58a1.52,1.52,0,0,1,2.84.09,1.48,1.48,0,0,1-1,1.89,2.62,2.62,0,0,1-.6,0,0.35,0.35,0,0,1-.2-0.1l-0.49-.44-0.2.1A1.48,1.48,0,0,1,39.26,26.85Zm-5,21.37V45.87a3.2,3.2,0,0,0,1.84,1.28Zm2.18-4.36c-0.35,0-.7,0-1,0.09a0.78,0.78,0,0,0-.34.2c-0.25.21-.49,0.44-0.74,0.66l-0.06,0c0-.34,0-0.68,0-1a0.24,0.24,0,0,1,.13-0.15,3.77,3.77,0,0,1,1.22-.2l1.81-.18a0.78,0.78,0,0,1,.32,0,0.2,0.2,0,0,1,.09.16,0.18,0.18,0,0,1-.09.14,2.68,2.68,0,0,0-1,.27A1.71,1.71,0,0,1,36.41,43.85Zm2.06,1.59a1.42,1.42,0,0,0,.38.06H40.1a0.29,0.29,0,0,1,.13,0,0.23,0.23,0,0,1,.13.12,0.2,0.2,0,0,1-.12.14,4.15,4.15,0,0,1-.64.11c-0.24,0-.49,0-0.75,0a2.59,2.59,0,0,1-1.49-.24,0.69,0.69,0,0,1-.41-0.53,0.64,0.64,0,0,1,.41-0.57,4.73,4.73,0,0,1,.59-0.12c0.31-.05.63-0.1,0.94-0.14l1.21-.12a0.34,0.34,0,0,1,.21.07,0.12,0.12,0,0,1,0,.22l-1.72.35a0.37,0.37,0,0,0-.37.25A0.43,0.43,0,0,0,38.47,45.45ZM39,42.63a3.87,3.87,0,0,1,.45-1.69l0.39,0.41A0.6,0.6,0,0,1,40.38,41l-0.51,1a2.5,2.5,0,0,0-.22.42C39.55,42.67,39.41,42.78,39,42.63Zm2.44,0.65a3.9,3.9,0,0,1-1.31-.12l-0.14,0a0.55,0.55,0,0,1,.14-0.05c0.44,0,.88,0,1.32,0a0.46,0.46,0,0,1,.27.12C41.64,43.33,41.49,43.28,41.39,43.28Zm2.56,0-0.55-.14a0.33,0.33,0,0,1-.1-0.09A0.29,0.29,0,0,1,43.4,43l0.72-.07Zm0.61-2.13a4.22,4.22,0,0,1-.27,1.26,0.18,0.18,0,0,1-.2.15l-2.42.07H40.6A1.38,1.38,0,0,1,41,41.42a2.26,2.26,0,0,0,.72,1.12,2.16,2.16,0,0,1,0-.42,1.64,1.64,0,0,1,.14-0.47,0.3,0.3,0,0,1,.42-0.16l0.25,0.09a0.43,0.43,0,0,1,0-.12,0.52,0.52,0,0,1,.09-0.26,0.3,0.3,0,0,1,.25,0,1.22,1.22,0,0,0,.77.23,2.27,2.27,0,0,1-.75-1.67h0.78a0.76,0.76,0,0,0-.59-0.44,2.69,2.69,0,0,0-.76-0.06,0.19,0.19,0,0,1-.24-0.14,3.2,3.2,0,0,1-.32-1.24L41.12,38l-0.23,0a0.27,0.27,0,0,1-.31-0.26,1.54,1.54,0,0,0-.38-1,0.88,0.88,0,0,0,0,.11c-0.06.27-.1,0.55-0.17,0.82s-0.13.27-.35,0.18a1.18,1.18,0,0,0-1.18,0l0.63,0.4c-0.32.19-.61,0.34-0.88,0.52s-0.52.38-.78,0.57l0,0.08,1.27-.26-0.85,1.75h0.66l-0.15.43c-0.14.39-.29,0.78-0.42,1.17a0.23,0.23,0,0,1-.27.18l-3.46-.16,0,0V35.67H43.8a0.21,0.21,0,0,1,.26.21c0.08,0.61.18,1.21,0.26,1.82,0.11,0.82.22,1.64,0.3,2.47A8.92,8.92,0,0,1,44.56,41.18Z" transform="translate(-12.3 -12.67)"/><path class="cls-1" d="M32.44,26.69a1,1,0,0,1-.43.18,2.31,2.31,0,0,1-2.16-.59l-0.05-.06a0.08,0.08,0,0,1,0,0,4.62,4.62,0,0,0,.65.14,3,3,0,0,0,.93,0,1.19,1.19,0,0,0,1-1,8.46,8.46,0,0,0,0-1,1.47,1.47,0,0,1,.55.88A1.41,1.41,0,0,1,32.44,26.69Z" transform="translate(-12.3 -12.67)"/><path class="cls-1" d="M32.09,25.57l0,0a4.68,4.68,0,0,1-.54,0,0.21,0.21,0,0,0-.26.13,1.85,1.85,0,0,1-.29.43c0-.19,0-0.39-0.06-0.6l-0.59-.05a5.33,5.33,0,0,0,.46-0.28,0.29,0.29,0,0,0,.1-0.19c0-.16,0-0.32,0-0.54a4,4,0,0,1,.32.28,0.18,0.18,0,0,0,.29,0,1.24,1.24,0,0,1,.39-0.18l-0.28.5Z" transform="translate(-12.3 -12.67)"/><path class="cls-1" d="M37.6,29.31a1.88,1.88,0,0,0-1.87,1.89,1.88,1.88,0,0,0,3.77,0A1.88,1.88,0,0,0,37.6,29.31Zm-0.06,3.53A1.66,1.66,0,0,1,36,31.09a1.61,1.61,0,0,1,3.22.06A1.66,1.66,0,0,1,37.54,32.84Z" transform="translate(-12.3 -12.67)"/><path class="cls-1" d="M40.64,26.2a1.18,1.18,0,1,0,1.19,1.18A1.18,1.18,0,0,0,40.64,26.2Zm0,2.21a1,1,0,1,1,1-.95A1,1,0,0,1,40.67,28.42Z" transform="translate(-12.3 -12.67)"/><path class="cls-2" d="M64.38,22.13h4.76v1.4H67.53v8.4H66v-8.4H64.38v-1.4Z" transform="translate(-12.3 -12.67)"/><path class="cls-2" d="M72.11,28l-0.48.9v3H70.1V22.13h1.54v4.24h0l2-4.24h1.54L73.05,26.5l2.14,5.44H73.61Z" transform="translate(-12.3 -12.67)"/><path class="cls-2" d="M79.42,29.09h0l1-7h2.14v9.81H81.17v-7h0l-1,7H78.65L77.53,25h0v6.93H76.16V22.13H78.3Z" transform="translate(-12.3 -12.67)"/><path class="cls-2" d="M90.94,28.28v1.3a2.3,2.3,0,1,1-4.59,0v-5.1a2.3,2.3,0,1,1,4.59,0v1H89.49V24.38a0.81,0.81,0,1,0-1.6,0v5.29a0.81,0.81,0,1,0,1.6,0v-1.4h1.46Z" transform="translate(-12.3 -12.67)"/><path class="cls-2" d="M92,24.48a2.34,2.34,0,1,1,4.68,0v5.1a2.34,2.34,0,1,1-4.68,0v-5.1Zm1.54,5.2a0.81,0.81,0,1,0,1.6,0V24.38a0.81,0.81,0,1,0-1.6,0v5.29Z" transform="translate(-12.3 -12.67)"/><path class="cls-2" d="M98,22.13h1.54v8.4h2.54v1.4H98V22.13Z" transform="translate(-12.3 -12.67)"/><path class="cls-2" d="M103,22.13h1.54v8.4h2.54v1.4H103V22.13Z" transform="translate(-12.3 -12.67)"/><path class="cls-2" d="M109.58,26.26h2.11v1.4h-2.11v2.87h2.66v1.4H108V22.13h4.2v1.4h-2.66v2.73Z" transform="translate(-12.3 -12.67)"/><path class="cls-2" d="M115.78,26.47h2.16v3.11a2.3,2.3,0,1,1-4.59,0v-5.1a2.3,2.3,0,1,1,4.59,0v1h-1.46V24.38a0.81,0.81,0,1,0-1.6,0v5.29a0.81,0.81,0,1,0,1.6,0V27.87h-0.7v-1.4Z" transform="translate(-12.3 -12.67)"/><path class="cls-2" d="M120.75,26.26h2.11v1.4h-2.11v2.87h2.66v1.4h-4.2V22.13h4.2v1.4h-2.66v2.73Z" transform="translate(-12.3 -12.67)"/><path class="cls-2" d="M127,24.48a2.34,2.34,0,1,1,4.68,0v5.1a2.34,2.34,0,1,1-4.68,0v-5.1Zm1.54,5.2a0.81,0.81,0,1,0,1.6,0V24.38a0.81,0.81,0,1,0-1.6,0v5.29Z" transform="translate(-12.3 -12.67)"/><path class="cls-2" d="M134.45,26.48h2v1.4h-2v4h-1.54V22.13H137v1.4h-2.54v3Z" transform="translate(-12.3 -12.67)"/><path class="cls-2" d="M66.37,43.06h2.11v1.4H66.37v2.87H69v1.4h-4.2V38.93H69v1.4H66.37v2.73Z" transform="translate(-12.3 -12.67)"/><path class="cls-2" d="M71.66,41.63h0v7.1H70.25V38.93h1.93l1.55,5.87h0V38.93h1.37v9.81H73.56Z" transform="translate(-12.3 -12.67)"/><path class="cls-2" d="M78.83,43.27H81v3.11a2.3,2.3,0,1,1-4.59,0v-5.1a2.3,2.3,0,1,1,4.59,0v1H79.53V41.18a0.81,0.81,0,1,0-1.6,0v5.29a0.81,0.81,0,1,0,1.6,0V44.67h-0.7v-1.4Z" transform="translate(-12.3 -12.67)"/><path class="cls-2" d="M82.26,38.93H83.8v9.81H82.26V38.93Z" transform="translate(-12.3 -12.67)"/><path class="cls-2" d="M86.6,41.63h0v7.1H85.19V38.93h1.93l1.55,5.87h0V38.93h1.37v9.81H88.49Z" transform="translate(-12.3 -12.67)"/><path class="cls-2" d="M93,43.06h2.11v1.4H93v2.87h2.66v1.4h-4.2V38.93h4.2v1.4H93v2.73Z" transform="translate(-12.3 -12.67)"/><path class="cls-2" d="M98.43,43.06h2.11v1.4H98.43v2.87h2.66v1.4h-4.2V38.93h4.2v1.4H98.43v2.73Z" transform="translate(-12.3 -12.67)"/><path class="cls-2" d="M105.54,48.73a3,3,0,0,1-.14-1.2V46c0-.91-0.31-1.25-1-1.25h-0.53v4h-1.54V38.93h2.33a2,2,0,0,1,2.28,2.25V42a1.93,1.93,0,0,1-1,2v0a2,2,0,0,1,1,2.07v1.51a2.9,2.9,0,0,0,.17,1.19h-1.57Zm-1.68-8.4v3h0.6a0.85,0.85,0,0,0,.92-1v-1c0-.7-0.24-1-0.78-1h-0.74Z" transform="translate(-12.3 -12.67)"/><path class="cls-2" d="M108.23,38.93h1.54v9.81h-1.54V38.93Z" transform="translate(-12.3 -12.67)"/><path class="cls-2" d="M112.57,41.63h0v7.1h-1.39V38.93h1.93l1.55,5.87h0V38.93H116v9.81h-1.58Z" transform="translate(-12.3 -12.67)"/><path class="cls-2" d="M119.74,43.27h2.16v3.11a2.3,2.3,0,1,1-4.59,0v-5.1a2.3,2.3,0,1,1,4.59,0v1h-1.46V41.18a0.81,0.81,0,1,0-1.6,0v5.29a0.81,0.81,0,1,0,1.6,0V44.67h-0.7v-1.4Z" transform="translate(-12.3 -12.67)"/><path class="cls-2" d="M123.17,48.73V47.25h1.48v1.33L124,50.13h-0.63l0.41-1.4h-0.59Z" transform="translate(-12.3 -12.67)"/><path class="cls-2" d="M130.52,44.82l-0.48.9v3H128.5V38.93H130v4.24h0l2-4.24h1.54l-2.14,4.37,2.14,5.44H132Z" transform="translate(-12.3 -12.67)"/><path class="cls-2" d="M134.45,41.28a2.34,2.34,0,1,1,4.68,0v5.1a2.34,2.34,0,1,1-4.68,0v-5.1Zm1.54,5.2a0.81,0.81,0,1,0,1.6,0V41.18a0.81,0.81,0,1,0-1.6,0v5.29Z" transform="translate(-12.3 -12.67)"/><path class="cls-2" d="M140.4,38.93h1.54v8.4h2.54v1.4H140.4V38.93Z" transform="translate(-12.3 -12.67)"/><path class="cls-2" d="M145.43,38.93H147v8.4h2.54v1.4h-4.08V38.93Z" transform="translate(-12.3 -12.67)"/><path class="cls-2" d="M155.44,48.73h-1.55L153.62,47h-1.89l-0.27,1.78H150l1.57-9.81h2.26Zm-3.52-3.11h1.48l-0.73-5h0Z" transform="translate(-12.3 -12.67)"/><path class="cls-2" d="M159.68,45.89h0l1-7h2.14v9.81h-1.46v-7h0l-1,7h-1.46l-1.12-6.93h0v6.93h-1.34V38.93h2.14Z" transform="translate(-12.3 -12.67)"/></svg>