<?xml version="1.0" encoding="utf-8"?>
<!-- Generator: Adobe Illustrator 16.0.0, SVG Export Plug-In . SVG Version: 6.00 Build 0)  -->
<!DOCTYPE svg PUBLIC "-//W3C//DTD SVG 1.1//EN" "http://www.w3.org/Graphics/SVG/1.1/DTD/svg11.dtd">
<svg version="1.1" id="Layer_1" xmlns="http://www.w3.org/2000/svg" xmlns:xlink="http://www.w3.org/1999/xlink" x="0px" y="0px"
	 width="720px" height="105px" viewBox="0 506.5 720 105" enable-background="new 0 506.5 720 105" xml:space="preserve">
<path fill="#FFFFFF" d="M45.492,513.941c6.078-0.051,12.101,1.166,17.684,3.567c5.422,2.326,10.374,5.625,14.608,9.734
	L64.917,540.11c-5.04-5.219-11.996-8.145-19.25-8.096c-7.277-0.125-14.275,2.794-19.308,8.052
	c-10.711,10.611-10.791,27.897-0.179,38.608c10.612,10.711,27.898,10.791,38.609,0.179c0.077-0.075,0.153-0.151,0.229-0.229
	l12.867,12.867c-4.217,4.145-9.171,7.466-14.608,9.792c-23.226,9.707-49.923-1.253-59.63-24.479
	C-6.06,553.58,4.9,526.883,28.125,517.176c5.534-2.313,11.47-3.511,17.468-3.523L45.492,513.941z"/>
<path fill="#FFFFFF" d="M160.021,527.143c17.618,17.789,17.479,46.491-0.31,64.109c-17.789,17.617-46.492,17.479-64.109-0.311
	c-17.617-17.79-17.479-46.491,0.31-64.109c8.482-8.4,19.937-13.116,31.876-13.123C139.926,513.544,151.592,518.405,160.021,527.143z
	 M108.479,539.951c-10.664,10.664-10.664,27.953,0,38.616s27.953,10.663,38.616,0l0,0c10.876-10.442,11.227-27.727,0.784-38.603
	s-27.726-11.227-38.602-0.783c-0.267,0.256-0.528,0.518-0.784,0.783L108.479,539.951z"/>
<path fill="#FFFFFF" d="M234.164,564.018V514.16h18.075V606l-54.109-51.6v49.916h-18.075V512.49L234.164,564.018z"/>
<path fill="#FFFFFF" d="M315.183,514.391l0.333,36.268v18.351c0.166,9.633-3.687,18.899-10.633,25.575
	c-6.621,6.782-15.705,10.598-25.184,10.575h-0.609c-7.221,0.049-14.277-2.162-20.178-6.325l9.125-15.841
	c2.52,2.134,5.613,3.476,8.893,3.857c0.739,0.112,1.486,0.171,2.234,0.176h0.392c0.729-0.008,1.456-0.064,2.176-0.176
	c3.943-0.51,7.596-2.347,10.357-5.208c3.49-3.313,5.436-7.938,5.368-12.751v-18.017l-0.334-36.542L315.183,514.391z"/>
<path fill="#FFFFFF" d="M397.042,514.159v54.385c0,20.029-16.236,36.266-36.266,36.266c-20.03,0-36.268-16.235-36.268-36.266
	v-54.385H342.7V568.5c0.04,9.967,8.107,18.035,18.075,18.075c4.798,0.038,9.403-1.886,12.751-5.323
	c3.489-3.315,5.436-7.938,5.366-12.752v-54.341h18.191H397.042z"/>
<path fill="#FFFFFF" d="M405.877,514.028h29.317c8.731-0.146,17.165,3.184,23.441,9.255c6.209,6.209,8.704,12.024,8.704,20.701v2.8
	c0.066,6.15-1.94,12.146-5.701,17.016c-3.801,5.367-6.991,6.935-12.925,9.183l20.31,31.394H447.06l-23.051-35.251v35.251h-18.075
	L405.877,514.028z M436.877,557.548c3.173,0.188,6.246-1.144,8.283-3.583c2.475-2.482,3.777-5.9,3.583-9.4
	c0.167-3.328-1.145-6.563-3.583-8.835c-2.625-2.684-7.325-3.641-11.083-3.641h-10.154v25.4L436.877,557.548z"/>
<path fill="#FFFFFF" d="M500.662,590.404c-2.018,4.584-4.091,9.125-6.15,13.709h-19.453l40.908-91.651l41.024,91.651h-19.454
	c-2.016-4.525-4.032-9.124-6.049-13.65h-30.71L500.662,590.404z M524.104,574.447l-7.948-18.742l-8.008,18.742H524.104z"/>
<path fill="#FFFFFF" d="M611.057,514.13l-2.292,29.26H595.23l-2.233-29.26h18.075H611.057z"/>
<path fill="#FFFFFF" d="M649.557,514.13v90.201h-18.074v-66.311l-9.01,2.671v-18.858L649.557,514.13z"/>
<path fill="#FFFFFF" d="M720,514.13l-28.477,90.201h-18.858l22.544-72.532h-20.31v9.342h-18.075V514.13H720z"/>
</svg>
