<svg id="d56ba963-bf11-4105-915b-d47c0fb7e3da" data-name="Layer 1" xmlns="http://www.w3.org/2000/svg" viewBox="0 0 190.57 33.78"><defs><style>.\34 5b3cbc7-4d56-4b05-85d2-47eb56570c59,.\39 942f9c7-6369-446d-91f5-1b3947e04f8f{fill:#7b057e;}.\34 5b3cbc7-4d56-4b05-85d2-47eb56570c59{fill-rule:evenodd;}</style></defs><title>title</title><path class="9942f9c7-6369-446d-91f5-1b3947e04f8f" d="M73.24,23.76a8.7,8.7,0,0,1,3.51.71,9.61,9.61,0,0,1,2.9,1.93L77.1,29a5.26,5.26,0,0,0-3.83-1.6A5.19,5.19,0,0,0,69.43,29a5.42,5.42,0,1,0,7.68,7.65l2.55,2.55a9.44,9.44,0,0,1-2.9,1.94,9.05,9.05,0,0,1-12.55-8.33,9.08,9.08,0,0,1,9-9.06v0Z" transform="translate(-16.64 -14.08)"/><path class="9942f9c7-6369-446d-91f5-1b3947e04f8f" d="M96,26.38a9,9,0,0,1,0,12.79,9,9,0,0,1-15.44-6.39A9,9,0,0,1,96,26.38ZM85.76,28.93a5.42,5.42,0,1,0,7.66,7.67A5.42,5.42,0,1,0,85.76,28.93Z" transform="translate(-16.64 -14.08)"/><path class="9942f9c7-6369-446d-91f5-1b3947e04f8f" d="M110.71,33.7v-9.9h3.59V42L103.56,31.8v9.91H100V23.47Z" transform="translate(-16.64 -14.08)"/><path class="9942f9c7-6369-446d-91f5-1b3947e04f8f" d="M126.81,23.85L126.87,31v3.66a6.88,6.88,0,0,1-2.11,5.08,7,7,0,0,1-5,2.1h-0.12a6.87,6.87,0,0,1-4-1.25l1.81-3.14a3.33,3.33,0,0,0,1.77.77,3.07,3.07,0,0,0,.44,0h0.08a3,3,0,0,0,.43,0,3.48,3.48,0,0,0,2.06-1,3.43,3.43,0,0,0,1.07-2.53V31.08l-0.07-7.25Z" transform="translate(-16.64 -14.08)"/><path class="9942f9c7-6369-446d-91f5-1b3947e04f8f" d="M143.06,23.81V34.6a7.2,7.2,0,1,1-14.41,0V23.81h3.61V34.59a3.59,3.59,0,0,0,7.19,0V23.81h3.61Z" transform="translate(-16.64 -14.08)"/><path class="9942f9c7-6369-446d-91f5-1b3947e04f8f" d="M144.82,23.78h5.82a6.54,6.54,0,0,1,4.65,1.83A5.25,5.25,0,0,1,157,29.73v0.56a5.43,5.43,0,0,1-1.13,3.38,4.53,4.53,0,0,1-2.57,1.82l4,6.23H153l-4.58-7v7h-3.59V23.78ZM151,32.42a2,2,0,0,0,1.64-.71,2.45,2.45,0,0,0,.71-1.87,2.24,2.24,0,0,0-.71-1.75,3.21,3.21,0,0,0-2.2-.72h-2v5H151Z" transform="translate(-16.64 -14.08)"/><path class="9942f9c7-6369-446d-91f5-1b3947e04f8f" d="M163.65,38.95c-0.4.91-.81,1.81-1.22,2.72h-3.85l8.12-18.2,8.14,18.2H171L169.77,39h-6.12Zm4.65-3.15-1.58-3.72-1.59,3.72h3.17Z" transform="translate(-16.64 -14.08)"/><path class="9942f9c7-6369-446d-91f5-1b3947e04f8f" d="M185.57,23.81l-0.46,5.81h-2.69L182,23.81h3.59Z" transform="translate(-16.64 -14.08)"/><path class="9942f9c7-6369-446d-91f5-1b3947e04f8f" d="M193.22,23.81V41.71h-3.59V28.55l-1.79.52V25.34Z" transform="translate(-16.64 -14.08)"/><path class="9942f9c7-6369-446d-91f5-1b3947e04f8f" d="M207.2,23.81l-5.65,17.91H197.8l4.48-14.4h-4v1.85h-3.59V23.81H207.2Z" transform="translate(-16.64 -14.08)"/><path class="45b3cbc7-4d56-4b05-85d2-47eb56570c59" d="M39.41,30.68L37.13,32.8c-1.21,1.13-2.41,2.26-3.63,3.38-0.69.63-1.43,1.21-2.11,1.85-1.5,1.39-3,2.82-4.46,4.21-1,.92-2,1.79-3,2.69L23.78,45c-0.19.16-.25,0.11-0.31-0.13-0.44-1.78-.89-3.55-1.33-5.32-0.26-1.05-.51-2.11-0.78-3.16-0.14-.56-0.31-1.11-0.45-1.67-0.22-.9-0.42-1.8-0.64-2.7-0.32-1.29-.66-2.57-1-3.86s-0.61-2.53-.93-3.79c-0.27-1.07-.56-2.13-0.83-3.2-0.23-.91-0.44-1.83-0.66-2.75a9.84,9.84,0,0,1-.23-1A0.6,0.6,0,0,1,16.79,17c1-1,2-1.9,3-2.85,0.18-.17.25-0.14,0.31,0.1,0.44,1.78.9,3.56,1.34,5.34,0.28,1.12.55,2.24,0.83,3.36s0.55,2.21.83,3.31l1.33,5.29,1.2,4.8c0.09,0.34.16,0.69,0.25,1s0.16,0.16.29,0L28,35.79l2.62-2.44c1.43-1.34,2.87-2.67,4.29-4a0.58,0.58,0,0,1,.64-0.15c1,0.33,2.08.63,3.12,0.95,0.23,0.07.45,0.17,0.67,0.23S39.58,30.52,39.41,30.68Z" transform="translate(-16.64 -14.08)"/><path class="45b3cbc7-4d56-4b05-85d2-47eb56570c59" d="M49.36,28.32l-0.13.12L38.93,38h0L30.84,45.6l-2.26,2.11a0.43,0.43,0,0,1-.48.12l-3.89-1.11c-0.28-.08-0.19-0.22,0-0.36l1.92-1.8,1-.94L38.54,33.08c1-.92,2-1.85,3-2.77,0.17-.16.18-0.23-0.06-0.3l-1.68-.51-2.67-.83-3.39-1-4.07-1.23a0.65,0.65,0,0,1-.49-0.55c-0.23-1.11-.48-2.21-0.72-3.31,0-.21-0.09-0.42-0.12-0.63s0.05-.26.24-0.21l2.64,0.79L34,23.34,36,24,39.4,25l2.14,0.68,2.56,0.76L49.28,28C49.51,28.11,49.48,28.19,49.36,28.32Z" transform="translate(-16.64 -14.08)"/><path class="45b3cbc7-4d56-4b05-85d2-47eb56570c59" d="M49.3,23.14c0.06,0.19.11,0.36,0.15,0.53L50.27,27c0.05,0.21,0,.31-0.23.23L46,26l-3.78-1.11-2.36-.71L36.14,23l-4.66-1.41-3.32-1c-0.29-.09-0.59-0.17-0.88-0.27s-0.28,0-.23.19c0.15,0.65.29,1.31,0.45,2l0.95,4c0.27,1.12.54,2.25,0.8,3.37q0.31,1.31.6,2.63a0.31,0.31,0,0,1-.06.25Q28.63,33.94,27.46,35c-0.27.25-.56,0.47-0.83,0.71-0.12.1-.18,0.1-0.21-0.08C26.23,34.86,26,34,25.84,33.22s-0.44-1.83-.65-2.75c-0.32-1.36-.62-2.73-0.94-4.09-0.22-.93-0.45-1.86-0.67-2.8-0.29-1.24-.57-2.48-0.87-3.72C22.49,18.91,22.25,18,22,17s-0.37-1.6-.56-2.4c0-.2.05-0.23,0.21-0.18l1.56,0.48,3.28,1,2.82,0.88,2.56,0.79c1,0.31,2,.64,2.93.95s1.67,0.5,2.51.75L39.54,20l3.77,1.18,2.91,0.93,2.48,0.78C48.9,23,49.1,23.06,49.3,23.14Z" transform="translate(-16.64 -14.08)"/></svg>